<?xml version="1.0" standalone="no"?>
<!DOCTYPE svg PUBLIC "-//W3C//DTD SVG 20010904//EN" "http://www.w3.org/TR/2001/REC-SVG-20010904/DTD/svg10.dtd">
<!-- Created using Krita: https://krita.org -->
<svg xmlns="http://www.w3.org/2000/svg" 
    xmlns:xlink="http://www.w3.org/1999/xlink"
    xmlns:krita="http://krita.org/namespaces/svg/krita"
    xmlns:sodipodi="http://sodipodi.sourceforge.net/DTD/sodipodi-0.dtd"
    width="1200pt"
    height="1200pt"
    viewBox="0 0 1200 1200">
<defs/>
<path id="shape0" transform="matrix(-0.568686884657491 0.906662243794015 0.906662243794015 0.568686884657491 338.099282125204 365.241336160179)" sodipodi:type="arc" sodipodi:rx="97.8003649259364" sodipodi:ry="97.6803644781745" sodipodi:cx="82.9622524071303" sodipodi:cy="-51.7261835640916" sodipodi:start="0.636130156115558" sodipodi:end="2.58352813455982" sodipodi:open="true" d="M-2.84217e-14 -2.84217e-14C17.1493 27.4378 46.7856 44.6176 79.1458 45.8798C111.506 47.142 142.393 32.3229 161.633 6.30445" opacity="0.71" fill="#e53a24" stroke="none" stroke-width="0.703202623884647" stroke-linecap="square" stroke-linejoin="bevel"/><path id="shape01" transform="matrix(0.430970302076627 -0.76029158647349 0.76029158647349 0.430970302076627 234.302019340903 504.587425694481)" sodipodi:type="arc" sodipodi:rx="213.840797911679" sodipodi:ry="213.840797911679" sodipodi:cx="97.7731100595001" sodipodi:cy="213.840801004561" sodipodi:start="4.23751785437686" sodipodi:end="5.19892273879559" sodipodi:open="true" d="M197.758 24.8143C135.986 -7.8591 62.1479 -8.28968 0 23.6611" opacity="0.71" fill="#e53a24" stroke="none" stroke-width="0.703202623884647" stroke-linecap="square" stroke-linejoin="bevel"/><path id="shape02" transform="matrix(0.568686855793145 0.906662197775348 -0.906662197775348 0.568686855793145 540.795238318785 366.485082693822)" sodipodi:type="arc" sodipodi:rx="97.8003649259364" sodipodi:ry="97.6803644781745" sodipodi:cx="82.9622524071303" sodipodi:cy="-51.7261835640917" sodipodi:start="0.636130156115558" sodipodi:end="2.58352813455982" sodipodi:open="true" d="M0 0C17.1493 27.4378 46.7856 44.6176 79.1458 45.8798C111.506 47.142 142.393 32.3229 161.633 6.30445" opacity="0.71" fill="#fecc00" stroke-opacity="0" stroke="#000000" stroke-width="0" stroke-linecap="square" stroke-linejoin="bevel"/><path id="shape01" transform="matrix(-0.430970280202242 -0.760291547884031 -0.760291547884031 0.430970280202242 644.352494951634 505.471163818852)" sodipodi:type="arc" sodipodi:rx="213.840797911679" sodipodi:ry="213.840797911679" sodipodi:cx="97.7731100595001" sodipodi:cy="213.840801004561" sodipodi:start="4.23751785437686" sodipodi:end="5.19892273879559" sodipodi:open="true" d="M197.758 24.8143C135.986 -7.8591 62.1479 -8.28968 0 23.6611" opacity="0.71" fill="#fecc00" stroke-opacity="0" stroke="#000000" stroke-width="0" stroke-linecap="square" stroke-linejoin="bevel"/><path id="shape03" transform="matrix(0.568567705306315 -0.906736871311392 -0.906736871311392 -0.568567705306315 540.126951842866 680.1091356458)" sodipodi:type="arc" sodipodi:rx="97.8003649259364" sodipodi:ry="97.6803644781745" sodipodi:cx="82.9622524071303" sodipodi:cy="-51.7261835640917" sodipodi:start="0.636130156115558" sodipodi:end="2.58352813455982" sodipodi:open="true" d="M0 0C17.1493 27.4378 46.7856 44.6176 79.1458 45.8798C111.506 47.142 142.393 32.3229 161.633 6.30445" opacity="0.71" fill="#7fa629" stroke-opacity="0" stroke="#000000" stroke-width="0" stroke-linecap="square" stroke-linejoin="bevel"/><path id="shape011" transform="matrix(-0.430870367482489 0.760348134478989 -0.760348134478989 -0.430870367482489 644.047683453594 540.557079040445)" sodipodi:type="arc" sodipodi:rx="213.840797911679" sodipodi:ry="213.840797911679" sodipodi:cx="97.7731100595001" sodipodi:cy="213.840801004561" sodipodi:start="4.23751785437686" sodipodi:end="5.19892273879559" sodipodi:open="true" d="M197.758 24.8143C135.986 -7.8591 62.1479 -8.28968 0 23.6611" opacity="0.71" fill="#7fa629" stroke-opacity="0" stroke="#000000" stroke-width="0" stroke-linecap="square" stroke-linejoin="bevel"/><path id="shape04" transform="matrix(-0.569160043861169 -0.906365187354069 0.906365187354069 -0.569160043861169 337.553547713903 680.105633650002)" sodipodi:type="arc" sodipodi:rx="97.8003649259364" sodipodi:ry="97.6803644781745" sodipodi:cx="82.9622524071303" sodipodi:cy="-51.7261835640917" sodipodi:start="0.636130156115558" sodipodi:end="2.58352813455982" sodipodi:open="true" d="M0 0C17.1493 27.4378 46.7856 44.6176 79.1458 45.8798C111.506 47.142 142.393 32.3229 161.633 6.30445" opacity="0.71" fill="#0078bf" stroke-opacity="0" stroke="#000000" stroke-width="0" stroke-linecap="square" stroke-linejoin="bevel"/><path id="shape012" transform="matrix(0.431367084962524 0.760066450977808 0.760066450977808 -0.431367084962524 233.382692855838 540.403300522204)" sodipodi:type="arc" sodipodi:rx="213.840797911679" sodipodi:ry="213.840797911679" sodipodi:cx="97.7731100595001" sodipodi:cy="213.840801004561" sodipodi:start="4.23751785437686" sodipodi:end="5.19892273879559" sodipodi:open="true" d="M197.758 24.8143C135.986 -7.8591 62.1479 -8.28968 0 23.6611" opacity="0.71" fill="#0078bf" stroke-opacity="0" stroke="#000000" stroke-width="0" stroke-linecap="square" stroke-linejoin="bevel"/><path id="shape05" transform="matrix(-1.06909867426168 0.0496886322747503 -0.0496886322747503 -1.06909867426168 526.426148019836 688.093615910661)" sodipodi:type="arc" sodipodi:rx="97.8003649259364" sodipodi:ry="97.6803644781745" sodipodi:cx="82.9622524071303" sodipodi:cy="-51.7261835640917" sodipodi:start="0.636130156115558" sodipodi:end="2.58352813455982" sodipodi:open="true" d="M0 0C17.1493 27.4378 46.7856 44.6176 79.1458 45.8798C111.506 47.142 142.393 32.3229 161.633 6.30445" opacity="0.71" fill="#3f477d" stroke-opacity="0" stroke="#000000" stroke-width="0" stroke-linecap="square" stroke-linejoin="bevel"/><path id="shape013" transform="matrix(0.873942608705656 -0.0016852230853791 -0.0016852230853791 -0.873942608705656 353.884895512351 710.028487738395)" sodipodi:type="arc" sodipodi:rx="213.840797911679" sodipodi:ry="213.840797911679" sodipodi:cx="97.7731100595001" sodipodi:cy="213.840801004561" sodipodi:start="4.23751785437686" sodipodi:end="5.19892273879559" sodipodi:open="true" d="M197.758 24.8143C135.986 -7.8591 62.1479 -8.28968 0 23.6611" opacity="0.71" fill="#3f477d" stroke-opacity="0" stroke="#000000" stroke-width="0" stroke-linecap="square" stroke-linejoin="bevel"/><path id="shape06" transform="matrix(1.06947167327936 -0.0408803314839122 0.0408803314839122 1.06947167327936 352.612518596063 357.098837142716)" sodipodi:type="arc" sodipodi:rx="97.8003649259364" sodipodi:ry="97.6803644781745" sodipodi:cx="82.9622524071303" sodipodi:cy="-51.7261835640917" sodipodi:start="0.636130156115558" sodipodi:end="2.58352813455982" sodipodi:open="true" d="M0 0C17.1493 27.4378 46.7856 44.6176 79.1458 45.8798C111.506 47.142 142.393 32.3229 161.633 6.30445" opacity="0.71" fill="#ff9100" stroke="none" stroke-width="1" stroke-linecap="square" stroke-linejoin="bevel"/><path id="shape014" transform="matrix(-0.873926811129248 -0.00551386527772631 -0.00551386527772631 0.873926811129248 525.419970386712 336.590023201981)" sodipodi:type="arc" sodipodi:rx="213.840797911679" sodipodi:ry="213.840797911679" sodipodi:cx="97.7731100595001" sodipodi:cy="213.840801004561" sodipodi:start="4.23751785437686" sodipodi:end="5.19892273879559" sodipodi:open="true" d="M197.758 24.8143C135.986 -7.8591 62.1479 -8.28968 0 23.6611" opacity="0.71" fill="#ff9100" stroke-opacity="0" stroke="#000000" stroke-width="0" stroke-linecap="square" stroke-linejoin="bevel"/><path id="shape07" transform="matrix(-0.945828410809425 0.500849093449071 0.500849093449071 0.945828410809425 430.472586541009 335.94071853885)" sodipodi:type="arc" sodipodi:rx="97.8003649259364" sodipodi:ry="97.6803644781745" sodipodi:cx="82.9622524071303" sodipodi:cy="-51.7261835640916" sodipodi:start="0.636130156115558" sodipodi:end="2.58352813455982" sodipodi:open="true" d="M-2.84217e-14 -2.84217e-14C17.1493 27.4378 46.7856 44.6176 79.1458 45.8798C111.506 47.142 142.393 32.3229 161.633 6.30445" opacity="0.31" fill="#e53a24" stroke="none" stroke-width="0.703202623884647" stroke-linecap="square" stroke-linejoin="bevel"/><path id="shape08" transform="matrix(0.753377023111758 -0.442946677131302 0.442946677131302 0.753377023111758 270.908475359364 404.719340601426)" sodipodi:type="arc" sodipodi:rx="213.840797911679" sodipodi:ry="213.840797911679" sodipodi:cx="97.7731100595001" sodipodi:cy="213.840801004561" sodipodi:start="4.23751785437686" sodipodi:end="5.19892273879559" sodipodi:open="true" d="M197.758 24.8143C135.986 -7.8591 62.1479 -8.28968 0 23.6611" opacity="0.31" fill="#e53a24" stroke="none" stroke-width="0.703202623884647" stroke-linecap="square" stroke-linejoin="bevel"/><path id="shape09" transform="matrix(0.0391661650274877 1.06953592382105 -1.06953592382105 0.0391661650274877 605.390560582207 438.365812729644)" sodipodi:type="arc" sodipodi:rx="97.8003649259364" sodipodi:ry="97.6803644781745" sodipodi:cx="82.9622524071303" sodipodi:cy="-51.7261835640917" sodipodi:start="0.636130156115558" sodipodi:end="2.58352813455982" sodipodi:open="true" d="M0 0C17.1493 27.4378 46.7856 44.6176 79.1458 45.8798C111.506 47.142 142.393 32.3229 161.633 6.30445" opacity="0.31" fill="#fecc00" stroke-opacity="0" stroke="#000000" stroke-width="0" stroke-linecap="square" stroke-linejoin="bevel"/><path id="shape015" transform="matrix(0.00691456301077592 -0.873916934851285 -0.873916934851285 -0.00691456301077592 625.580735009963 610.509918072789)" sodipodi:type="arc" sodipodi:rx="213.840797911679" sodipodi:ry="213.840797911679" sodipodi:cx="97.7731100595001" sodipodi:cy="213.840801004561" sodipodi:start="4.23751785437686" sodipodi:end="5.19892273879559" sodipodi:open="true" d="M197.758 24.8143C135.986 -7.8591 62.1479 -8.28968 0 23.6611" opacity="0.31" fill="#fecc00" stroke-opacity="0" stroke="#000000" stroke-width="0" stroke-linecap="square" stroke-linejoin="bevel"/><path id="shape010" transform="matrix(0.941096260663456 -0.509685017906273 -0.509685017906273 -0.941096260663456 448.724054745732 709.82434598483)" sodipodi:type="arc" sodipodi:rx="97.8003649259364" sodipodi:ry="97.6803644781745" sodipodi:cx="82.9622524071303" sodipodi:cy="-51.7261835640917" sodipodi:start="0.636130156115558" sodipodi:end="2.58352813455982" sodipodi:open="true" d="M0 0C17.1493 27.4378 46.7856 44.6176 79.1458 45.8798C111.506 47.142 142.393 32.3229 161.633 6.30445" opacity="0.31" fill="#7fa629" stroke-opacity="0" stroke="#000000" stroke-width="0" stroke-linecap="square" stroke-linejoin="bevel"/><path id="shape016" transform="matrix(-0.749195601921512 0.44998278771708 -0.44998278771708 -0.749195601921512 607.431154579564 639.7726413214)" sodipodi:type="arc" sodipodi:rx="213.840797911679" sodipodi:ry="213.840797911679" sodipodi:cx="97.7731100595001" sodipodi:cy="213.840801004561" sodipodi:start="4.23751785437686" sodipodi:end="5.19892273879559" sodipodi:open="true" d="M197.758 24.8143C135.986 -7.8591 62.1479 -8.28968 0 23.6611" opacity="0.31" fill="#7fa629" stroke-opacity="0" stroke="#000000" stroke-width="0" stroke-linecap="square" stroke-linejoin="bevel"/><path id="shape011" transform="matrix(-0.0397244631258034 -1.06951529928505 1.06951529928505 -0.0397244631258034 272.565281965472 607.440553003071)" sodipodi:type="arc" sodipodi:rx="97.8003649259364" sodipodi:ry="97.6803644781745" sodipodi:cx="82.9622524071303" sodipodi:cy="-51.7261835640917" sodipodi:start="0.636130156115558" sodipodi:end="2.58352813455982" sodipodi:open="true" d="M0 0C17.1493 27.4378 46.7856 44.6176 79.1458 45.8798C111.506 47.142 142.393 32.3229 161.633 6.30445" opacity="0.31" fill="#0078bf" stroke-opacity="0" stroke="#000000" stroke-width="0" stroke-linecap="square" stroke-linejoin="bevel"/><path id="shape017" transform="matrix(-0.00645837155491785 0.873920397592324 0.873920397592324 0.00645837155491785 252.204377855065 435.277134818465)" sodipodi:type="arc" sodipodi:rx="213.840797911679" sodipodi:ry="213.840797911679" sodipodi:cx="97.7731100595001" sodipodi:cy="213.840801004561" sodipodi:start="4.23751785437686" sodipodi:end="5.19892273879559" sodipodi:open="true" d="M197.758 24.8143C135.986 -7.8591 62.1479 -8.28968 0 23.6611" opacity="0.31" fill="#0078bf" stroke-opacity="0" stroke="#000000" stroke-width="0" stroke-linecap="square" stroke-linejoin="bevel"/><path id="shape012" transform="matrix(-0.950710927200251 -0.491517719301601 0.491517719301601 -0.950710927200251 431.726602984323 709.462426514816)" sodipodi:type="arc" sodipodi:rx="97.8003649259364" sodipodi:ry="97.6803644781745" sodipodi:cx="82.9622524071303" sodipodi:cy="-51.7261835640917" sodipodi:start="0.636130156115558" sodipodi:end="2.58352813455982" sodipodi:open="true" d="M0 0C17.1493 27.4378 46.7856 44.6176 79.1458 45.8798C111.506 47.142 142.393 32.3229 161.633 6.30445" opacity="0.31" fill="#3f477d" stroke-opacity="0" stroke="#000000" stroke-width="0" stroke-linecap="square" stroke-linejoin="bevel"/><path id="shape018" transform="matrix(0.757699112131431 0.435511858349846 0.435511858349846 -0.757699112131431 271.74975295949 642.427957397634)" sodipodi:type="arc" sodipodi:rx="213.840797911679" sodipodi:ry="213.840797911679" sodipodi:cx="97.7731100595001" sodipodi:cy="213.840801004561" sodipodi:start="4.23751785437686" sodipodi:end="5.19892273879559" sodipodi:open="true" d="M197.758 24.8143C135.986 -7.8591 62.1479 -8.28968 0 23.6611" opacity="0.31" fill="#3f477d" stroke-opacity="0" stroke="#000000" stroke-width="0" stroke-linecap="square" stroke-linejoin="bevel"/><path id="shape013" transform="matrix(0.946629803429736 0.499332431059485 -0.499332431059485 0.946629803429736 447.409449437624 336.268082913561)" sodipodi:type="arc" sodipodi:rx="97.8003649259364" sodipodi:ry="97.6803644781745" sodipodi:cx="82.9622524071303" sodipodi:cy="-51.7261835640917" sodipodi:start="0.636130156115558" sodipodi:end="2.58352813455982" sodipodi:open="true" d="M0 0C17.1493 27.4378 46.7856 44.6176 79.1458 45.8798C111.506 47.142 142.393 32.3229 161.633 6.30445" opacity="0.31" fill="#ff9100" stroke="none" stroke-width="1" stroke-linecap="square" stroke-linejoin="bevel"/><path id="shape019" transform="matrix(-0.754085886847391 -0.44173855296818 -0.44173855296818 0.754085886847391 607.022717708959 404.788297796026)" sodipodi:type="arc" sodipodi:rx="213.840797911679" sodipodi:ry="213.840797911679" sodipodi:cx="97.7731100595001" sodipodi:cy="213.840801004561" sodipodi:start="4.23751785437686" sodipodi:end="5.19892273879559" sodipodi:open="true" d="M197.758 24.8143C135.986 -7.8591 62.1479 -8.28968 0 23.6611" opacity="0.31" fill="#ff9100" stroke-opacity="0" stroke="#000000" stroke-width="0" stroke-linecap="square" stroke-linejoin="bevel"/><path id="shape0" transform="translate(-0.761180322984369, -0.257057258869054)" opacity="0.31" fill="#e53a24" fill-rule="evenodd" stroke="none" stroke-width="0.703202623884647" stroke-linecap="square" stroke-linejoin="bevel" d="M417.181 276.988L415.745 274.639L414.257 272.342L412.718 270.096L411.131 267.901L409.496 265.758L407.814 263.667L406.086 261.629L404.315 259.643L402.5 257.71L400.643 255.831L398.746 254.005L396.808 252.233L394.833 250.515L392.82 248.851L390.771 247.243L388.688 245.689L386.571 244.191L384.421 242.749L382.24 241.362L380.029 240.032L377.789 238.759L375.521 237.542L373.227 236.382L370.907 235.28L368.564 234.236L366.197 233.25L363.808 232.323L361.399 231.454L358.971 230.644L356.524 229.893L354.06 229.202L351.58 228.571L349.086 228L346.578 227.49L344.057 227.04L341.526 226.652L338.984 226.325L336.434 226.06L333.876 225.857L331.312 225.716L328.743 225.637L326.169 225.622L323.593 225.67L321.015 225.781L318.437 225.957L315.859 226.196L313.283 226.5L310.711 226.868L308.142 227.302L305.579 227.801L303.023 228.365L300.474 228.996L297.935 229.693L295.405 230.456L292.887 231.286L290.382 232.184L287.89 233.148L285.413 234.181L282.953 235.281L280.509 236.45L278.084 237.688L275.679 238.995L273.295 240.37L270.947 241.807L268.649 243.295L266.403 244.833L264.208 246.421L262.065 248.056L259.975 249.738L257.936 251.465L255.95 253.237L254.017 255.052L252.138 256.909L250.312 258.806L248.54 260.743L246.822 262.719L245.159 264.732L243.55 266.78L241.996 268.864L240.498 270.981L239.056 273.131L237.669 275.312L236.339 277.523L235.066 279.763L233.849 282.03L232.69 284.325L231.588 286.644L230.543 288.988L229.557 291.355L228.63 293.743L227.761 296.153L226.951 298.581L226.2 301.028L225.509 303.492L224.878 305.972L224.307 308.466L223.797 310.974L223.348 313.494L222.959 316.026L222.632 318.567L222.367 321.118L222.164 323.675L222.023 326.239L221.944 328.809L221.929 331.382L221.977 333.959L222.088 336.536L222.264 339.115L222.503 341.693L222.807 344.268L223.175 346.841L223.609 349.41L224.108 351.973L224.673 354.529L225.303 357.077L226 359.617L226.763 362.146L227.593 364.664L228.491 367.17L229.455 369.662L230.488 372.138L231.589 374.599L232.757 377.042L233.995 379.467L235.302 381.872L236.677 384.257L238.114 386.605L239.602 388.902L241.141 391.149L242.728 393.343L244.363 395.486L246.045 397.577L247.772 399.616L249.544 401.601L251.359 403.534L253.216 405.414L255.113 407.24L257.05 409.012L259.026 410.73L260.241 411.734L262.601 408.025L265.487 403.726L268.474 399.502L271.56 395.355L274.745 391.286L278.026 387.299L281.401 383.393L284.869 379.572L288.428 375.836L292.076 372.188L295.812 368.629L299.633 365.161L303.538 361.786L307.526 358.505L311.594 355.32L315.741 352.234L319.965 349.247L324.265 346.361L328.638 343.579L333.082 340.902L337.597 338.331L342.18 335.869L346.83 333.517L351.544 331.276L356.322 329.15L361.161 327.139L366.059 325.244L371.016 323.469L376.028 321.815L381.095 320.282L386.215 318.874L391.385 317.592L396.605 316.437L401.872 315.412L407.184 314.517L412.541 313.756L417.94 313.129L423.379 312.638L428.857 312.285L430.316 312.229L430.25 311.835L429.751 309.272L429.186 306.716L428.556 304.167L427.859 301.628L427.096 299.098L426.266 296.58L425.368 294.075L424.403 291.583L423.371 289.106L422.27 286.646L421.101 284.202L419.864 281.777L418.557 279.372L417.181 276.988" sodipodi:nodetypes="cccccccccccccccccccccccccccccccccccccccccccccccccccccccccccccccccccccccccccccccccccccccccccccccccccccccccccccccccccccccccccccccccccccccccccccccccccccccccccccccccccccccccccccccccccccccccccccccccccc"/><path id="shape1" transform="translate(-1.44000537314262, 0)" opacity="0.31" fill="#7fa629" fill-rule="evenodd" stroke="none" stroke-width="0.703202623884647" stroke-linecap="square" stroke-linejoin="bevel" d="M646.707 662.255L645.271 659.907L643.783 657.61L642.244 655.364L640.657 653.169L639.022 651.026L637.34 648.935L635.612 646.897L633.841 644.911L632.026 642.978L630.169 641.099L628.271 639.273L626.334 637.5L624.359 635.783L622.346 634.119L621.116 633.154L620.024 634.966L617.242 639.339L614.357 643.638L611.37 647.862L608.283 652.009L605.099 656.077L601.818 660.065L598.442 663.971L594.975 667.792L591.416 671.528L587.767 675.176L584.032 678.735L580.21 682.203L576.305 685.578L572.317 688.859L568.249 692.043L564.102 695.13L559.878 698.117L555.579 701.002L551.206 703.785L546.761 706.462L542.246 709.033L537.663 711.495L533.013 713.847L528.299 716.087L523.521 718.214L518.682 720.225L513.784 722.119L508.827 723.895L503.815 725.549L498.748 727.082L493.629 728.49L488.458 729.772L483.239 730.927L477.972 731.952L472.659 732.847L467.302 733.608L461.904 734.235L456.464 734.726L453.185 734.937L453.634 737.24L454.198 739.797L454.829 742.345L455.526 744.885L456.289 747.414L457.119 749.932L458.017 752.438L458.981 754.929L460.014 757.406L461.114 759.867L462.283 762.31L463.521 764.735L464.828 767.14L466.203 769.525L467.64 771.873L469.128 774.17L470.666 776.416L472.254 778.611L473.889 780.754L475.571 782.845L477.298 784.883L479.07 786.869L480.885 788.802L482.742 790.682L484.639 792.508L486.576 794.28L488.552 795.998L490.565 797.661L492.613 799.27L494.697 800.823L496.814 802.321L498.964 803.764L501.145 805.15L503.356 806.48L505.596 807.754L507.863 808.97L510.158 810.13L512.477 811.232L514.821 812.276L517.188 813.262L519.576 814.19L521.986 815.059L524.414 815.869L526.861 816.619L529.325 817.31L531.805 817.941L534.299 818.512L536.807 819.022L539.328 819.472L541.859 819.86L544.4 820.187L546.951 820.453L549.508 820.656L552.072 820.797L554.642 820.875L557.215 820.89L559.792 820.842L562.369 820.731L564.948 820.556L567.526 820.316L570.101 820.013L572.674 819.644L575.243 819.21L577.806 818.712L580.362 818.147L582.91 817.516L585.45 816.82L587.979 816.056L590.497 815.226L593.003 814.329L595.495 813.364L597.971 812.332L600.432 811.231L602.875 810.062L605.3 808.824L607.705 807.518L610.09 806.142L612.438 804.705L614.735 803.217L616.982 801.679L619.176 800.092L621.319 798.456L623.41 796.774L625.449 795.047L627.434 793.275L629.367 791.46L631.247 789.604L633.073 787.706L634.845 785.769L636.563 783.794L638.226 781.781L639.835 779.732L641.388 777.648L642.886 775.531L644.329 773.382L645.715 771.201L647.046 768.99L648.319 766.75L649.536 764.482L650.695 762.188L651.797 759.868L652.841 757.524L653.827 755.158L654.755 752.769L655.624 750.36L656.434 747.931L657.184 745.484L657.875 743.02L658.506 740.541L659.077 738.046L659.588 735.538L660.037 733.018L660.426 730.486L660.753 727.945L661.018 725.395L661.221 722.837L661.362 720.273L661.44 717.703L661.456 715.13L661.408 712.554L661.296 709.976L661.121 707.397L660.882 704.82L660.578 702.244L660.209 699.671L659.776 697.103L659.277 694.54L658.712 691.983L658.082 689.435L657.385 686.895L656.622 684.366L655.791 681.848L654.894 679.343L653.929 676.851L652.897 674.374L651.796 671.913L650.627 669.47L649.39 667.045L648.083 664.64L646.707 662.255" sodipodi:nodetypes="cccccccccccccccccccccccccccccccccccccccccccccccccccccccccccccccccccccccccccccccccccccccccccccccccccccccccccccccccccccccccccccccccccccccccccccccccccccccccccccccccccccccccccccccccccccccccccccccccccc"/><path id="shape2" transform="matrix(0.999965543713504 -0.00830128819863536 0.00830128819863536 0.999965543713504 -5.56548220471666 3.45261514389705)" opacity="0.31" fill="#0078bf" fill-rule="evenodd" stroke="none" stroke-width="0.703202623884647" stroke-linecap="square" stroke-linejoin="bevel" d="M251.211 427.715L250.526 427.468L248.097 426.658L245.651 425.908L243.187 425.217L240.707 424.586L238.212 424.015L235.704 423.504L233.184 423.055L230.653 422.666L228.111 422.34L225.561 422.074L223.003 421.871L220.439 421.73L217.87 421.652L215.296 421.636L212.72 421.684L210.142 421.796L207.564 421.971L204.986 422.21L202.41 422.514L199.838 422.883L197.269 423.316L194.706 423.815L192.15 424.38L189.601 425.01L187.062 425.707L184.532 426.471L182.014 427.301L179.509 428.198L177.017 429.163L174.54 430.195L172.08 431.296L169.636 432.465L167.211 433.702L164.806 435.009L162.422 436.385L160.073 437.821L157.776 439.31L155.53 440.848L153.335 442.435L151.192 444.07L149.101 445.752L147.063 447.48L145.077 449.252L143.144 451.066L141.265 452.923L139.439 454.821L137.667 456.758L135.949 458.733L134.285 460.746L132.677 462.795L131.123 464.878L129.625 466.996L128.183 469.145L126.796 471.326L125.466 473.537L124.192 475.777L122.976 478.045L121.816 480.339L120.714 482.659L119.67 485.003L118.684 487.369L117.757 489.758L116.888 492.167L116.078 494.596L115.327 497.042L114.636 499.506L114.005 501.986L113.434 504.481L112.924 506.989L112.474 509.509L112.086 512.04L111.759 514.582L111.494 517.132L111.29 519.69L111.15 522.254L111.071 524.823L111.056 527.397L111.104 529.973L111.215 532.551L111.39 535.129L111.63 537.707L111.934 540.283L112.302 542.856L112.736 545.424L113.235 547.987L113.799 550.543L114.43 553.092L115.127 555.632L115.89 558.161L116.72 560.679L117.618 563.184L118.582 565.676L119.615 568.153L120.715 570.613L121.884 573.057L123.122 575.482L124.428 577.887L125.804 580.271L127.241 582.62L128.729 584.917L130.267 587.163L131.855 589.358L133.49 591.501L135.172 593.592L136.899 595.63L138.671 597.616L140.486 599.549L142.343 601.428L144.24 603.254L146.177 605.026L148.153 606.744L150.166 608.408L152.214 610.016L154.298 611.57L156.415 613.068L158.565 614.51L160.746 615.897L162.957 617.227L165.197 618.501L167.464 619.717L169.759 620.877L172.078 621.979L174.422 623.023L176.789 624.009L179.177 624.936L181.587 625.805L184.015 626.615L186.462 627.366L188.926 628.057L191.406 628.688L193.9 629.259L196.408 629.769L198.928 630.219L201.46 630.607L204.001 630.934L206.552 631.199L209.109 631.403L211.673 631.543L214.243 631.622L216.816 631.637L219.393 631.589L221.97 631.478L224.549 631.303L227.127 631.063L229.702 630.759L232.275 630.391L234.843 629.957L237.407 629.458L239.963 628.894L242.511 628.263L245.051 627.566L247.58 626.803L250.098 625.973L252.604 625.076L253.818 624.605L252.108 621.423L249.756 616.774L247.516 612.059L245.389 607.282L243.378 602.443L241.484 597.544L239.709 592.588L238.054 587.575L236.522 582.508L235.114 577.389L233.831 572.218L232.677 566.999L231.651 561.732L230.757 556.419L229.995 551.063L229.368 545.664L228.878 540.225L228.525 534.747L228.312 529.232L228.241 523.682L228.312 518.132L228.525 512.617L228.878 507.139L229.368 501.7L229.995 496.301L230.757 490.945L231.651 485.632L232.677 480.365L233.831 475.145L235.114 469.975L236.522 464.856L238.054 459.789L239.709 454.776L241.484 449.82L243.378 444.921L245.389 440.082L247.516 435.305L249.756 430.59L251.211 427.715" sodipodi:nodetypes="cccccccccccccccccccccccccccccccccccccccccccccccccccccccccccccccccccccccccccccccccccccccccccccccccccccccccccccccccccccccccccccccccccccccccccccccccccccccccccccccccccccccccccccccccccccccccccccccccccc"/><path id="shape3" transform="translate(-0.720002708786506, -0.240000849715443)" opacity="0.31" fill="#ff9100" fill-rule="evenodd" stroke="none" stroke-width="0.703202623884647" stroke-linecap="square" stroke-linejoin="bevel" d="M644.359 273.495L642.922 271.147L641.434 268.849L639.896 266.603L638.308 264.408L636.673 262.266L634.991 260.175L633.264 258.136L631.492 256.15L629.677 254.218L627.82 252.338L625.923 250.512L623.986 248.74L622.01 247.022L619.997 245.359L617.949 243.75L615.865 242.196L613.748 240.698L611.598 239.256L609.417 237.869L607.206 236.539L604.966 235.266L602.698 234.049L600.404 232.89L598.085 231.788L595.741 230.744L593.374 229.757L590.986 228.83L588.576 227.961L586.148 227.151L583.701 226.4L581.237 225.709L578.757 225.078L576.263 224.507L573.755 223.997L571.234 223.548L568.703 223.159L566.162 222.832L563.611 222.567L561.054 222.364L558.489 222.223L555.92 222.145L553.347 222.129L550.77 222.177L548.192 222.288L545.614 222.464L543.036 222.703L540.461 223.007L537.888 223.375L535.319 223.809L532.756 224.308L530.2 224.873L527.651 225.503L525.112 226.2L522.583 226.963L520.065 227.793L517.559 228.691L515.067 229.656L512.591 230.688L510.13 231.789L507.687 232.958L505.262 234.195L502.856 235.502L500.472 236.878L498.124 238.314L495.826 239.802L493.58 241.341L491.386 242.928L489.243 244.563L487.152 246.245L485.113 247.973L483.127 249.744L481.195 251.559L479.315 253.416L477.489 255.313L475.717 257.251L473.999 259.226L472.336 261.239L470.727 263.288L469.174 265.371L467.675 267.488L466.233 269.638L464.847 271.819L463.516 274.03L462.243 276.27L461.026 278.538L459.867 280.832L458.765 283.151L457.721 285.495L456.735 287.862L455.807 290.251L454.938 292.66L454.128 295.088L453.377 297.535L452.687 299.999L452.055 302.479L451.485 304.973L450.974 307.481L450.525 310.002L450.179 312.254L450.986 312.285L456.464 312.638L461.904 313.129L467.302 313.756L472.659 314.517L477.972 315.412L483.239 316.437L488.458 317.592L493.629 318.874L498.748 320.282L503.815 321.815L508.827 323.469L513.784 325.244L518.682 327.139L523.521 329.15L528.299 331.276L533.013 333.517L537.663 335.869L542.246 338.331L546.761 340.902L551.206 343.579L555.579 346.361L559.878 349.247L564.102 352.234L568.249 355.32L572.317 358.505L576.305 361.786L580.21 365.161L584.032 368.629L587.767 372.188L591.416 375.836L594.975 379.572L598.442 383.393L601.818 387.299L605.099 391.286L608.283 395.355L611.37 399.502L614.357 403.726L617.242 408.025L618.523 410.038L618.971 409.696L621.061 408.014L623.1 406.287L625.086 404.515L627.019 402.7L628.898 400.843L630.724 398.946L632.496 397.008L634.214 395.033L635.877 393.02L637.486 390.972L639.04 388.888L640.538 386.771L641.98 384.621L643.367 382.44L644.697 380.229L645.97 377.989L647.187 375.721L648.346 373.427L649.448 371.108L650.493 368.764L651.479 366.397L652.406 364.008L653.275 361.599L654.085 359.171L654.836 356.724L655.527 354.26L656.158 351.78L656.729 349.286L657.239 346.778L657.689 344.257L658.077 341.726L658.404 339.184L658.669 336.634L658.872 334.076L659.013 331.512L659.092 328.943L659.107 326.37L659.059 323.793L658.948 321.215L658.772 318.637L658.533 316.059L658.229 313.483L657.861 310.911L657.427 308.342L656.928 305.779L656.363 303.223L655.733 300.674L655.036 298.135L654.273 295.605L653.443 293.087L652.545 290.582L651.581 288.09L650.548 285.613L649.447 283.153L648.279 280.709L647.041 278.285L645.734 275.879L644.359 273.495" sodipodi:nodetypes="ccccccccccccccccccccccccccccccccccccccccccccccccccccccccccccccccccccccccccccccccccccccccccccccccccccccccccccccccccccccccccccccccccccccccccccccccccccccccccccccccccccccccccccccccccccccccccccccccccccccc"/><path id="shape4" transform="translate(-1.44000537314262, 0)" opacity="0.31" fill="#fecc00" fill-rule="evenodd" stroke="none" stroke-width="0.703202623884647" stroke-linecap="square" stroke-linejoin="bevel" d="M757.298 463.792L755.861 461.444L754.373 459.146L752.835 456.9L751.248 454.705L749.612 452.563L747.93 450.472L746.203 448.433L744.431 446.447L742.616 444.515L740.76 442.635L738.862 440.809L736.925 439.037L734.949 437.319L732.937 435.656L730.888 434.047L728.804 432.493L726.687 430.995L724.538 429.553L722.357 428.166L720.146 426.836L717.906 425.563L715.638 424.346L713.344 423.187L711.024 422.085L708.68 421.041L706.314 420.054L703.925 419.127L701.516 418.258L699.087 417.448L696.64 416.697L694.176 416.006L691.697 415.375L689.202 414.804L686.694 414.294L684.174 413.845L681.642 413.456L679.101 413.129L676.551 412.864L673.993 412.661L671.429 412.52L668.859 412.442L666.286 412.426L663.71 412.474L661.132 412.585L658.553 412.761L655.976 413L653.4 413.304L650.827 413.673L648.259 414.106L645.696 414.605L643.139 415.17L640.591 415.8L638.051 416.497L635.522 417.26L633.004 418.09L630.498 418.988L628.007 419.953L625.53 420.985L625.156 421.152L625.272 421.357L627.735 425.94L630.087 430.59L632.327 435.305L634.454 440.082L636.465 444.921L638.359 449.82L640.134 454.776L641.789 459.789L643.321 464.856L644.729 469.975L646.012 475.145L647.167 480.365L648.192 485.632L649.086 490.945L649.848 496.301L650.475 501.7L650.966 507.139L651.318 512.617L651.531 518.132L651.602 523.682L651.531 529.232L651.318 534.747L650.966 540.225L650.475 545.664L649.848 551.063L649.086 556.419L648.192 561.732L647.167 566.999L646.012 572.218L644.729 577.389L643.321 582.508L641.789 587.575L640.134 592.588L638.359 597.544L636.465 602.443L634.454 607.282L632.327 612.059L630.524 615.855L632.576 616.595L635.005 617.405L637.452 618.156L639.916 618.847L642.395 619.478L644.89 620.049L647.398 620.559L649.918 621.008L652.45 621.397L654.991 621.724L657.541 621.989L660.099 622.192L662.663 622.333L665.233 622.411L667.806 622.427L670.382 622.379L672.96 622.268L675.539 622.092L678.116 621.853L680.692 621.549L683.265 621.181L685.833 620.747L688.396 620.248L690.953 619.683L693.501 619.053L696.041 618.356L698.57 617.593L701.088 616.763L703.594 615.865L706.085 614.901L708.562 613.868L711.023 612.767L713.466 611.598L715.891 610.361L718.296 609.054L720.681 607.678L723.029 606.242L725.326 604.754L727.572 603.215L729.767 601.628L731.91 599.993L734.001 598.311L736.039 596.584L738.025 594.812L739.958 592.997L741.838 591.14L743.664 589.243L745.436 587.305L747.154 585.33L748.817 583.317L750.426 581.269L751.979 579.185L753.477 577.068L754.92 574.918L756.306 572.737L757.636 570.526L758.91 568.286L760.126 566.018L761.286 563.724L762.388 561.405L763.432 559.061L764.418 556.694L765.346 554.305L766.215 551.896L767.025 549.468L767.775 547.021L768.466 544.557L769.097 542.077L769.668 539.583L770.178 537.075L770.628 534.554L771.016 532.023L771.343 529.481L771.609 526.931L771.812 524.373L771.953 521.809L772.031 519.24L772.046 516.667L771.998 514.09L771.887 511.512L771.712 508.934L771.472 506.356L771.169 503.78L770.8 501.208L770.366 498.639L769.868 496.076L769.303 493.52L768.672 490.971L767.976 488.432L767.212 485.902L766.382 483.384L765.485 480.879L764.52 478.387L763.488 475.91L762.387 473.45L761.218 471.006L759.98 468.582L758.674 466.176L757.298 463.792" sodipodi:nodetypes="cccccccccccccccccccccccccccccccccccccccccccccccccccccccccccccccccccccccccccccccccccccccccccccccccccccccccccccccccccccccccccccccccccccccccccccccccccccccccccccccccccccccccccccccccccccccccccccccccccccc"/><path id="shape5" transform="translate(-1.100592840418, 0.421767768352538)" opacity="0.31" fill="#3f477d" fill-rule="evenodd" stroke="none" stroke-width="0.703202623884647" stroke-linecap="square" stroke-linejoin="bevel" d="M261.377 637.415L259.383 639.105L257.398 640.876L255.465 642.691L253.585 644.548L251.759 646.446L249.987 648.383L248.269 650.358L246.606 652.371L244.997 654.42L243.444 656.503L241.946 658.62L240.503 660.77L239.117 662.951L237.787 665.162L236.513 667.402L235.296 669.67L234.137 671.964L233.035 674.284L231.991 676.627L231.005 678.994L230.077 681.383L229.208 683.792L228.398 686.22L227.648 688.667L226.957 691.131L226.326 693.611L225.755 696.106L225.244 698.614L224.795 701.134L224.406 703.665L224.079 706.207L223.814 708.757L223.611 711.315L223.47 713.879L223.392 716.448L223.376 719.022L223.424 721.598L223.536 724.176L223.711 726.754L223.95 729.332L224.254 731.908L224.623 734.48L225.056 737.049L225.555 739.612L226.12 742.168L226.75 744.717L227.447 747.256L228.21 749.786L229.041 752.304L229.938 754.809L230.903 757.301L231.935 759.778L233.036 762.238L234.205 764.682L235.442 767.107L236.749 769.512L238.125 771.896L239.561 774.244L241.05 776.542L242.588 778.788L244.175 780.983L245.81 783.126L247.492 785.217L249.22 787.255L250.991 789.241L252.806 791.174L254.663 793.053L256.561 794.879L258.498 796.651L260.473 798.369L262.486 800.033L264.535 801.641L266.618 803.195L268.736 804.693L270.885 806.135L273.066 807.522L275.277 808.852L277.517 810.125L279.785 811.342L282.079 812.502L284.399 813.603L286.743 814.648L289.109 815.634L291.498 816.561L293.907 817.43L296.336 818.24L298.782 818.991L301.246 819.682L303.726 820.313L306.221 820.884L308.729 821.394L311.249 821.844L313.78 822.232L316.322 822.559L318.872 822.824L321.43 823.027L323.994 823.168L326.563 823.247L329.137 823.262L331.713 823.214L334.291 823.103L336.869 822.927L339.447 822.688L342.023 822.384L344.596 822.016L347.164 821.582L349.727 821.083L352.283 820.519L354.832 819.888L357.371 819.191L359.901 818.428L362.419 817.598L364.924 816.7L367.416 815.736L369.893 814.703L372.353 813.603L374.797 812.434L377.222 811.196L379.627 809.889L382.011 808.514L384.36 807.077L386.657 805.589L388.903 804.051L391.098 802.463L393.241 800.828L395.332 799.146L397.37 797.419L399.356 795.647L401.289 793.832L403.168 791.975L404.994 790.078L406.766 788.141L408.484 786.165L410.148 784.152L411.756 782.104L413.31 780.02L414.808 777.903L416.25 775.753L417.637 773.572L418.967 771.361L420.241 769.121L421.457 766.853L422.617 764.559L423.719 762.24L424.763 759.896L425.749 757.529L426.676 755.141L427.545 752.731L428.355 750.303L429.106 747.856L429.797 745.392L430.428 742.912L430.999 740.418L431.509 737.91L431.959 735.389L431.988 735.199L428.857 735.078L423.379 734.726L417.94 734.235L412.541 733.608L407.184 732.847L401.872 731.952L396.605 730.927L391.385 729.772L386.215 728.49L381.095 727.082L376.028 725.549L371.016 723.895L366.059 722.119L361.161 720.225L356.322 718.214L351.544 716.087L346.83 713.847L342.18 711.495L337.597 709.033L333.082 706.462L328.638 703.785L324.265 701.002L319.965 698.117L315.741 695.13L311.594 692.043L307.526 688.859L303.538 685.578L299.633 682.203L295.812 678.735L292.076 675.176L288.428 671.528L284.869 667.792L281.401 663.971L278.026 660.065L274.745 656.077L271.56 652.009L268.474 647.862L265.487 643.638L262.601 639.339L261.377 637.415" sodipodi:nodetypes="ccccccccccccccccccccccccccccccccccccccccccccccccccccccccccccccccccccccccccccccccccccccccccccccccccccccccccccccccccccccccccccccccccccccccccccccccccccccccccccccccccccccccccccccccccccccccccccccccccccc"/><path id="shape6" transform="translate(-1.44000537314262, 0)" opacity="0.71" fill="#ff9100" fill-rule="evenodd" stroke="none" stroke-width="0.703202623884647" stroke-linecap="square" stroke-linejoin="bevel" d="M546.738 299.491L546.702 296.739L546.597 294.003L546.422 291.287L546.179 288.589L545.868 285.911L545.49 283.255L545.046 280.62L544.538 278.008L543.965 275.419L543.329 272.854L542.631 270.315L541.871 267.802L541.05 265.316L540.17 262.858L539.23 260.429L538.233 258.029L537.178 255.659L536.067 253.321L534.9 251.015L533.679 248.742L532.404 246.503L531.076 244.298L529.696 242.129L528.265 239.997L526.784 237.902L525.253 235.845L523.673 233.828L522.046 231.85L520.372 229.913L518.652 228.018L516.887 226.165L515.078 224.356L513.225 222.59L511.33 220.87L509.393 219.196L507.415 217.569L505.397 215.99L503.341 214.459L501.246 212.978L499.113 211.546L496.945 210.167L494.74 208.839L492.501 207.564L490.228 206.343L487.922 205.176L485.584 204.065L483.214 203.01L480.814 202.013L478.385 201.073L475.926 200.193L473.44 199.372L470.927 198.612L468.388 197.914L465.824 197.278L463.235 196.705L460.623 196.196L457.988 195.753L455.331 195.375L452.654 195.064L449.956 194.821L447.239 194.646L444.504 194.54L441.752 194.505L438.999 194.54L436.264 194.646L433.547 194.821L430.849 195.064L428.172 195.375L425.515 195.753L422.88 196.196L420.268 196.705L417.679 197.278L415.115 197.914L412.576 198.612L410.063 199.372L407.577 200.193L405.119 201.073L402.689 202.013L400.289 203.01L397.92 204.065L395.581 205.176L393.275 206.343L391.002 207.564L388.763 208.839L386.559 210.167L384.39 211.546L382.258 212.978L380.163 214.459L378.106 215.99L376.088 217.569L374.11 219.196L372.173 220.87L370.278 222.59L368.425 224.356L366.616 226.165L364.851 228.018L363.131 229.913L361.457 231.85L359.83 233.828L358.25 235.845L356.72 237.902L355.238 239.997L353.807 242.129L352.427 244.298L351.099 246.503L349.824 248.742L348.603 251.015L347.436 253.321L346.325 255.659L345.271 258.029L344.273 260.429L343.334 262.858L342.453 265.316L341.633 267.802L340.873 270.315L340.174 272.854L339.538 275.419L338.966 278.008L338.457 280.62L338.013 283.255L337.636 285.911L337.325 288.589L337.081 291.287L336.906 294.003L336.801 296.739L336.766 299.491L336.801 302.244L336.906 304.979L337.081 307.696L337.325 310.393L337.636 313.071L338.013 315.728L338.457 318.363L338.966 320.975L339.538 323.563L340.174 326.128L340.873 328.667L341.633 331.18L342.453 333.666L343.079 335.414L346.83 333.517L351.544 331.276L356.322 329.15L361.161 327.139L366.059 325.244L371.016 323.469L376.028 321.815L381.095 320.282L386.215 318.874L391.385 317.592L396.605 316.437L401.872 315.412L407.184 314.517L412.541 313.756L417.94 313.129L423.379 312.638L428.857 312.285L434.372 312.073L439.922 312.001L445.472 312.073L450.986 312.285L456.464 312.638L461.904 313.129L467.302 313.756L472.659 314.517L477.972 315.412L483.239 316.437L488.458 317.592L493.629 318.874L498.748 320.282L503.815 321.815L508.827 323.469L513.784 325.244L518.682 327.139L523.521 329.15L528.299 331.276L533.013 333.517L537.663 335.869L539.82 337.028L540.17 336.124L541.05 333.666L541.871 331.18L542.631 328.667L543.329 326.128L543.965 323.563L544.538 320.975L545.046 318.363L545.49 315.728L545.868 313.071L546.179 310.393L546.422 307.696L546.597 304.979L546.702 302.244L546.738 299.491" sodipodi:nodetypes="ccccccccccccccccccccccccccccccccccccccccccccccccccccccccccccccccccccccccccccccccccccccccccccccccccccccccccccccccccccccccccccccccccccccccccccccccccccccccccccccccccccccccccccccccccccccccccccccccccc"/><path id="shape7" transform="translate(-1.44000537314262, 0)" opacity="0.71" fill="#3f477d" fill-rule="evenodd" stroke="none" stroke-width="0.703202623884647" stroke-linecap="square" stroke-linejoin="bevel" d="M546.738 747.813L546.702 745.06L546.597 742.325L546.422 739.608L546.179 736.911L545.868 734.233L545.49 731.576L545.046 728.941L544.538 726.329L543.965 723.74L543.329 721.176L542.631 718.637L541.871 716.124L541.05 713.638L540.17 711.18L539.839 710.326L537.663 711.495L533.013 713.847L528.299 716.087L523.521 718.214L518.682 720.225L513.784 722.119L508.827 723.895L503.815 725.549L498.748 727.082L493.629 728.49L488.458 729.772L483.239 730.927L477.972 731.952L472.659 732.847L467.302 733.608L461.904 734.235L456.464 734.726L450.986 735.078L445.472 735.291L439.922 735.363L434.372 735.291L428.857 735.078L423.379 734.726L417.94 734.235L412.541 733.608L407.184 732.847L401.872 731.952L396.605 730.927L391.385 729.772L386.215 728.49L381.095 727.082L376.028 725.549L371.016 723.895L366.059 722.119L361.161 720.225L356.322 718.214L351.544 716.087L346.83 713.847L343.061 711.941L342.453 713.638L341.633 716.124L340.873 718.637L340.174 721.176L339.538 723.74L338.966 726.329L338.457 728.941L338.013 731.576L337.636 734.233L337.325 736.911L337.081 739.608L336.906 742.325L336.801 745.06L336.766 747.813L336.801 750.565L336.906 753.301L337.081 756.017L337.325 758.715L337.636 761.393L338.013 764.049L338.457 766.684L338.966 769.296L339.538 771.885L340.174 774.449L340.873 776.989L341.633 779.502L342.453 781.988L343.334 784.446L344.273 786.875L345.271 789.275L346.325 791.645L347.436 793.983L348.603 796.289L349.824 798.562L351.099 800.801L352.427 803.006L353.807 805.174L355.238 807.307L356.72 809.402L358.25 811.459L359.83 813.476L361.457 815.454L363.131 817.391L364.851 819.286L366.616 821.139L368.425 822.948L370.278 824.713L372.173 826.433L374.11 828.107L376.088 829.735L378.106 831.314L380.163 832.845L382.258 834.326L384.39 835.757L386.559 837.137L388.763 838.465L391.002 839.74L393.275 840.961L395.581 842.128L397.92 843.239L400.289 844.294L402.689 845.291L405.119 846.231L407.577 847.111L410.063 847.932L412.576 848.692L415.115 849.39L417.679 850.026L420.268 850.599L422.88 851.107L425.515 851.551L428.172 851.929L430.849 852.24L433.547 852.483L436.264 852.658L438.999 852.764L441.752 852.799L444.504 852.764L447.239 852.658L449.956 852.483L452.654 852.24L455.331 851.929L457.988 851.551L460.623 851.107L463.235 850.599L465.824 850.026L468.388 849.39L470.927 848.692L473.44 847.932L475.926 847.111L478.385 846.231L480.814 845.291L483.214 844.294L485.584 843.239L487.922 842.128L490.228 840.961L492.501 839.74L494.74 838.465L496.945 837.137L499.113 835.757L501.246 834.326L503.341 832.845L505.397 831.314L507.415 829.735L509.393 828.107L511.33 826.433L513.225 824.713L515.078 822.948L516.887 821.139L518.652 819.286L520.372 817.391L522.046 815.454L523.673 813.476L525.253 811.459L526.784 809.402L528.265 807.307L529.696 805.174L531.076 803.006L532.404 800.801L533.679 798.562L534.9 796.289L536.067 793.983L537.178 791.645L538.233 789.275L539.23 786.875L540.17 784.446L541.05 781.988L541.871 779.502L542.631 776.989L543.329 774.449L543.965 771.885L544.538 769.296L545.046 766.684L545.49 764.049L545.868 761.393L546.179 758.715L546.422 756.017L546.597 753.301L546.702 750.565L546.738 747.813" sodipodi:nodetypes="ccccccccccccccccccccccccccccccccccccccccccccccccccccccccccccccccccccccccccccccccccccccccccccccccccccccccccccccccccccccccccccccccccccccccccccccccccccccccccccccccccccccccccccccccccccccccccccccccccc"/><path id="shape8" transform="translate(-1.44000537314262, 0)" opacity="0.71" fill="#e53a24" fill-rule="evenodd" stroke="none" stroke-width="0.703202623884647" stroke-linecap="square" stroke-linejoin="bevel" d="M326.249 345.099L325.486 344.17L323.812 342.233L322.092 340.338L320.327 338.485L318.517 336.676L316.664 334.911L314.769 333.191L312.832 331.517L310.854 329.89L308.837 328.31L306.78 326.779L304.685 325.298L302.553 323.867L300.384 322.487L298.179 321.159L295.94 319.884L293.667 318.663L291.361 317.496L289.023 316.385L286.653 315.331L284.253 314.333L281.824 313.394L279.366 312.513L276.88 311.693L274.367 310.933L271.828 310.234L269.263 309.598L266.675 309.025L264.062 308.517L261.427 308.073L258.771 307.696L256.093 307.385L253.396 307.141L250.679 306.966L247.944 306.861L245.191 306.825L242.438 306.861L239.703 306.966L236.986 307.141L234.289 307.385L231.611 307.696L228.954 308.073L226.32 308.517L223.707 309.025L221.119 309.598L218.554 310.234L216.015 310.933L213.502 311.693L211.016 312.513L208.558 313.394L206.128 314.333L203.728 315.331L201.359 316.385L199.021 317.496L196.715 318.663L194.442 319.884L192.202 321.159L189.998 322.487L187.829 323.867L185.697 325.298L183.602 326.779L181.545 328.31L179.527 329.89L177.55 331.517L175.613 333.191L173.717 334.911L171.865 336.676L170.055 338.485L168.29 340.338L166.57 342.233L164.896 344.17L163.269 346.148L161.69 348.166L160.159 350.223L158.677 352.318L157.246 354.45L155.866 356.619L154.538 358.823L153.264 361.062L152.042 363.335L150.876 365.641L149.765 367.98L148.71 370.349L147.712 372.749L146.773 375.178L145.893 377.637L145.072 380.123L144.312 382.636L143.614 385.175L142.978 387.739L142.405 390.328L141.896 392.94L141.453 395.575L141.075 398.232L140.764 400.909L140.521 403.607L140.346 406.324L140.24 409.059L140.205 411.812L140.24 414.564L140.346 417.299L140.521 420.016L140.764 422.714L141.075 425.391L141.453 428.048L141.896 430.683L142.405 433.295L142.978 435.884L143.614 438.448L144.312 440.987L145.072 443.5L145.893 445.986L146.773 448.445L147.712 450.874L148.71 453.274L149.765 455.644L150.876 457.982L152.042 460.288L153.264 462.561L154.538 464.8L155.866 467.004L157.246 469.173L158.677 471.306L160.159 473.401L161.69 475.457L163.269 477.475L164.896 479.453L166.57 481.39L168.29 483.285L170.055 485.138L171.865 486.947L173.717 488.712L175.613 490.432L177.55 492.106L179.527 493.733L181.545 495.313L183.602 496.844L185.697 498.325L187.829 499.756L189.998 501.136L192.202 502.464L194.442 503.739L196.715 504.96L199.021 506.127L201.359 507.238L203.728 508.293L206.128 509.29L208.558 510.229L211.016 511.11L213.502 511.931L216.015 512.691L218.554 513.389L221.119 514.025L223.707 514.598L226.32 515.106L228.415 515.459L228.525 512.617L228.878 507.139L229.368 501.7L229.995 496.301L230.757 490.945L231.651 485.632L232.677 480.365L233.831 475.145L235.114 469.975L236.522 464.856L238.054 459.789L239.709 454.776L241.484 449.82L243.378 444.921L245.389 440.082L247.516 435.305L249.756 430.59L252.108 425.94L254.571 421.357L257.141 416.843L259.819 412.398L262.601 408.025L265.487 403.726L268.474 399.502L271.56 395.355L274.745 391.286L278.026 387.299L281.401 383.393L284.869 379.572L288.428 375.836L292.076 372.188L295.812 368.629L299.633 365.161L303.538 361.786L307.526 358.505L311.594 355.32L315.741 352.234L319.965 349.247L324.265 346.361L326.249 345.099" sodipodi:nodetypes="ccccccccccccccccccccccccccccccccccccccccccccccccccccccccccccccccccccccccccccccccccccccccccccccccccccccccccccccccccccccccccccccccccccccccccccccccccccccccccccccccccccccccccccccccccccccccccccccccccccc"/><path id="shape9" transform="translate(-1.44000537314262, 0)" opacity="0.71" fill="#fecc00" fill-rule="evenodd" stroke="none" stroke-width="0.703202623884647" stroke-linecap="square" stroke-linejoin="bevel" d="M741.858 410.852L741.823 408.099L741.718 405.364L741.543 402.647L741.299 399.949L740.988 397.272L740.611 394.615L740.167 391.98L739.658 389.368L739.086 386.779L738.45 384.215L737.751 381.676L736.991 379.163L736.171 376.677L735.29 374.218L734.351 371.789L733.353 369.389L732.299 367.02L731.188 364.681L730.021 362.375L728.8 360.102L727.525 357.863L726.197 355.659L724.817 353.49L723.386 351.358L721.904 349.263L720.374 347.206L718.794 345.188L717.167 343.21L715.493 341.273L713.773 339.378L712.008 337.525L710.199 335.716L708.346 333.951L706.451 332.231L704.514 330.557L702.536 328.93L700.518 327.35L698.461 325.819L696.366 324.338L694.234 322.907L692.065 321.527L689.861 320.199L687.622 318.924L685.349 317.703L683.043 316.536L680.704 315.425L678.335 314.371L675.935 313.373L673.505 312.434L671.047 311.553L668.561 310.733L666.048 309.973L663.509 309.274L660.945 308.638L658.356 308.065L655.744 307.557L653.109 307.113L650.452 306.736L647.775 306.425L645.077 306.181L642.36 306.006L639.625 305.901L636.872 305.865L634.12 305.901L631.385 306.006L628.668 306.181L625.97 306.425L623.293 306.736L620.636 307.113L618.001 307.557L615.389 308.065L612.8 308.638L610.236 309.274L607.697 309.973L605.184 310.733L602.697 311.553L600.239 312.434L597.81 313.373L595.41 314.371L593.04 315.425L590.702 316.536L588.396 317.703L586.123 318.924L583.884 320.199L581.679 321.527L579.511 322.907L577.378 324.338L575.283 325.819L573.227 327.35L571.209 328.93L569.231 330.557L567.294 332.231L565.399 333.951L563.546 335.716L561.737 337.525L559.972 339.378L558.252 341.273L556.578 343.21L554.951 345.188L554.546 345.705L555.579 346.361L559.878 349.247L564.102 352.234L568.249 355.32L572.317 358.505L576.305 361.786L580.21 365.161L584.032 368.629L587.767 372.188L591.416 375.836L594.975 379.572L598.442 383.393L601.818 387.299L605.098 391.286L608.283 395.355L611.37 399.502L614.357 403.726L617.242 408.025L620.024 412.398L622.702 416.843L625.272 421.357L627.735 425.94L630.087 430.59L632.327 435.305L634.454 440.082L636.465 444.921L638.359 449.82L640.134 454.776L641.789 459.789L643.321 464.855L644.729 469.975L646.012 475.145L647.166 480.365L648.192 485.632L649.086 490.945L649.848 496.301L650.475 501.7L650.966 507.139L651.318 512.617L651.404 514.832L653.109 514.59L655.744 514.146L658.356 513.638L660.945 513.065L663.509 512.429L666.048 511.731L668.561 510.971L671.047 510.15L673.505 509.269L675.935 508.33L678.335 507.333L680.704 506.278L683.043 505.167L685.349 504L687.622 502.779L689.861 501.504L692.065 500.176L694.234 498.796L696.366 497.365L698.461 495.884L700.518 494.353L702.536 492.773L704.514 491.146L706.451 489.472L708.346 487.752L710.199 485.987L712.008 484.178L713.773 482.325L715.493 480.43L717.167 478.493L718.794 476.515L720.374 474.497L721.904 472.441L723.386 470.346L724.817 468.213L726.197 466.044L727.525 463.84L728.8 461.601L730.021 459.328L731.188 457.022L732.299 454.684L733.353 452.314L734.351 449.914L735.29 447.485L736.171 445.026L736.991 442.54L737.751 440.027L738.45 437.488L739.086 434.924L739.658 432.335L740.167 429.723L740.611 427.088L740.988 424.431L741.299 421.754L741.543 419.056L741.718 416.339L741.823 413.604L741.858 410.852" sodipodi:nodetypes="ccccccccccccccccccccccccccccccccccccccccccccccccccccccccccccccccccccccccccccccccccccccccccccccccccccccccccccccccccccccccccccccccccccccccccccccccccccccccccccccccccccccccccccccccccccccccccccccccccccccc"/><path id="shape10" transform="translate(-1.44000537314262, 0)" opacity="0.71" fill="#7fa629" fill-rule="evenodd" stroke="none" stroke-width="0.703202623884647" stroke-linecap="square" stroke-linejoin="bevel" d="M742.578 633.332L742.543 630.58L742.438 627.845L742.263 625.128L742.019 622.43L741.708 619.753L741.331 617.096L740.887 614.461L740.378 611.849L739.806 609.26L739.17 606.696L738.471 604.157L737.711 601.644L736.891 599.158L736.01 596.699L735.071 594.27L734.073 591.87L733.019 589.5L731.908 587.162L730.741 584.856L729.52 582.583L728.245 580.344L726.917 578.139L725.537 575.971L724.106 573.838L722.624 571.743L721.094 569.687L719.514 567.669L717.887 565.691L716.213 563.754L714.493 561.859L712.728 560.006L710.919 558.197L709.066 556.432L707.171 554.712L705.234 553.038L703.256 551.411L701.238 549.831L699.181 548.3L697.086 546.819L694.954 545.388L692.785 544.008L690.581 542.68L688.342 541.405L686.069 540.184L683.763 539.017L681.424 537.906L679.055 536.851L676.655 535.854L674.225 534.914L671.767 534.034L669.281 533.213L666.768 532.453L664.229 531.755L661.665 531.119L659.076 530.546L656.464 530.038L653.829 529.594L651.53 529.267L651.318 534.747L650.966 540.225L650.475 545.664L649.848 551.063L649.086 556.419L648.192 561.732L647.167 566.999L646.012 572.218L644.729 577.389L643.321 582.508L641.789 587.575L640.134 592.588L638.359 597.544L636.465 602.443L634.454 607.282L632.327 612.059L630.087 616.774L627.735 621.423L625.272 626.007L622.702 630.521L620.024 634.966L617.242 639.339L614.357 643.638L611.37 647.862L608.283 652.009L605.099 656.077L601.818 660.065L598.442 663.971L594.975 667.792L591.416 671.528L587.767 675.176L584.032 678.735L580.21 682.203L576.305 685.578L572.317 688.859L568.249 692.043L564.102 695.13L559.878 698.117L556.701 700.249L557.298 700.974L558.972 702.911L560.692 704.806L562.457 706.659L564.266 708.468L566.119 710.233L568.014 711.953L569.951 713.627L571.929 715.254L573.947 716.834L576.003 718.364L578.098 719.846L580.231 721.277L582.399 722.657L584.604 723.985L586.843 725.26L589.116 726.481L591.422 727.648L593.76 728.759L596.13 729.813L598.53 730.811L600.959 731.75L603.418 732.631L605.904 733.451L608.417 734.211L610.956 734.91L613.52 735.546L616.109 736.118L618.721 736.627L621.356 737.071L624.013 737.448L626.69 737.759L629.388 738.003L632.105 738.178L634.84 738.283L637.592 738.318L640.345 738.283L643.08 738.178L645.797 738.003L648.495 737.759L651.172 737.448L653.829 737.071L656.464 736.627L659.076 736.118L661.665 735.546L664.229 734.91L666.768 734.211L669.281 733.451L671.767 732.631L674.225 731.75L676.655 730.811L679.055 729.813L681.424 728.759L683.763 727.648L686.069 726.481L688.342 725.26L690.581 723.985L692.785 722.657L694.954 721.277L697.086 719.846L699.181 718.364L701.238 716.834L703.256 715.254L705.234 713.627L707.171 711.953L709.066 710.233L710.919 708.468L712.728 706.659L714.493 704.806L716.213 702.911L717.887 700.974L719.514 698.996L721.094 696.978L722.624 694.921L724.106 692.826L725.537 690.694L726.917 688.525L728.245 686.321L729.52 684.082L730.741 681.809L731.908 679.503L733.019 677.164L734.073 674.795L735.071 672.395L736.01 669.965L736.891 667.507L737.711 665.021L738.471 662.508L739.17 659.969L739.806 657.405L740.378 654.816L740.887 652.204L741.331 649.569L741.708 646.912L742.019 644.235L742.263 641.537L742.438 638.82L742.543 636.085L742.578 633.332" sodipodi:nodetypes="ccccccccccccccccccccccccccccccccccccccccccccccccccccccccccccccccccccccccccccccccccccccccccccccccccccccccccccccccccccccccccccccccccccccccccccccccccccccccccccccccccccccccccccccccccccccccccccccccccccc"/><path id="shape11" transform="translate(-1.44000537314262, 0)" opacity="0.71" fill="#0078bf" fill-rule="evenodd" stroke="none" stroke-width="0.703202623884647" stroke-linecap="square" stroke-linejoin="bevel" d="M228.326 529.581L228.234 529.594L225.6 530.038L222.987 530.546L220.399 531.119L217.834 531.755L215.295 532.453L212.782 533.213L210.296 534.034L207.838 534.914L205.408 535.854L203.008 536.851L200.639 537.906L198.301 539.017L195.995 540.184L193.722 541.405L191.482 542.68L189.278 544.008L187.109 545.388L184.977 546.819L182.882 548.3L180.825 549.831L178.807 551.411L176.83 553.038L174.893 554.712L172.997 556.432L171.145 558.197L169.335 560.006L167.57 561.859L165.85 563.754L164.176 565.691L162.549 567.669L160.97 569.687L159.439 571.743L157.957 573.838L156.526 575.971L155.146 578.139L153.818 580.344L152.544 582.583L151.322 584.856L150.156 587.162L149.045 589.5L147.99 591.87L146.992 594.27L146.053 596.699L145.173 599.158L144.352 601.644L143.592 604.157L142.894 606.696L142.258 609.26L141.685 611.849L141.176 614.461L140.733 617.096L140.355 619.753L140.044 622.43L139.801 625.128L139.626 627.845L139.52 630.58L139.485 633.332L139.52 636.085L139.626 638.82L139.801 641.537L140.044 644.235L140.355 646.912L140.733 649.569L141.176 652.204L141.685 654.816L142.258 657.405L142.894 659.969L143.592 662.508L144.352 665.021L145.173 667.507L146.053 669.965L146.992 672.395L147.99 674.795L149.045 677.164L150.156 679.503L151.322 681.809L152.544 684.082L153.818 686.321L155.146 688.525L156.526 690.694L157.957 692.826L159.439 694.921L160.97 696.978L162.549 698.996L164.176 700.974L165.85 702.911L167.57 704.806L169.335 706.659L171.145 708.468L172.997 710.233L174.893 711.953L176.83 713.627L178.807 715.254L180.825 716.834L182.882 718.364L184.977 719.846L187.109 721.277L189.278 722.657L191.482 723.985L193.722 725.26L195.995 726.481L198.301 727.648L200.639 728.759L203.008 729.813L205.408 730.811L207.838 731.75L210.296 732.631L212.782 733.451L215.295 734.211L217.834 734.91L220.399 735.546L222.987 736.118L225.6 736.627L228.234 737.071L230.891 737.448L233.569 737.759L236.266 738.003L238.983 738.178L241.718 738.283L244.471 738.318L247.224 738.283L249.959 738.178L252.676 738.003L255.373 737.759L258.051 737.448L260.707 737.071L263.342 736.627L265.955 736.118L268.543 735.546L271.108 734.91L273.647 734.211L276.16 733.451L278.646 732.631L281.104 731.75L283.533 730.811L285.933 729.813L288.303 728.759L290.641 727.648L292.947 726.481L295.22 725.26L297.459 723.985L299.664 722.657L301.833 721.277L303.965 719.846L306.06 718.364L308.117 716.834L310.134 715.254L312.112 713.627L314.049 711.953L315.944 710.233L317.797 708.468L319.607 706.659L321.372 704.806L323.092 702.911L324.572 701.198L324.265 701.002L319.965 698.117L315.741 695.13L311.594 692.043L307.526 688.859L303.538 685.578L299.633 682.203L295.812 678.735L292.076 675.176L288.428 671.528L284.869 667.792L281.401 663.971L278.026 660.065L274.745 656.077L271.56 652.009L268.474 647.862L265.487 643.638L262.601 639.339L259.819 634.966L257.141 630.521L254.571 626.007L252.108 621.423L249.756 616.774L247.516 612.059L245.389 607.282L243.378 602.443L241.484 597.544L239.709 592.588L238.054 587.575L236.522 582.508L235.114 577.389L233.831 572.218L232.677 566.999L231.651 561.732L230.757 556.419L229.995 551.063L229.368 545.664L228.878 540.225L228.525 534.747L228.326 529.581" sodipodi:nodetypes="ccccccccccccccccccccccccccccccccccccccccccccccccccccccccccccccccccccccccccccccccccccccccccccccccccccccccccccccccccccccccccccccccccccccccccccccccccccccccccccccccccccccccccccccccccccccccccccccccccccc"/>
</svg>
